# xmcd CD database file
#
# Track frame offsets:
#	150
#	17286
#	30909
#	45443
#	62216
#	77765
#	92814
#	107064
#	123110
#	136735
#	154049
#	167840
#	185869
#	203561
#	219221
#	237654
#	252915
#	269782
#	284288
#	301355
#	317562
#	337125
#
# Disc length: 4728 seconds
#
# Revision: 0
# Processed by: cddbd v1.5.2PL0 Copyright (c) Steve Scherf et al.
# Submitted via: CDex 1.51
#
DISCID=32127616
DTITLE=Marcelo e Resende - Volume 4
DYEAR=2007
DGENRE=Country
TTITLE0=Te Amo Demais
TTITLE1=Noite de Luar
TTITLE2=Traz uma Gelada
TTITLE3=Um Pedaço de Mim
TTITLE4=Misturado
TTITLE5=Mais um Disfarce
TTITLE6=Show da Galera
TTITLE7=Em Cada Amanhecer
TTITLE8=Livro Aberto
TTITLE9=Milagre da Flecha
TTITLE10=Deusa da Minha Vida
TTITLE11=Troquei Poeira por Perfume e Amor
TTITLE12=Sonho por Sonho
TTITLE13=Minha Estrela Perdida
TTITLE14=Sai dessa Coração
TTITLE15=Um Pedaço do Meu Coração
TTITLE16=Gaiola de Concreto
TTITLE17=Coração de Pedra
TTITLE18=Saudade Sua
TTITLE19=Coração Culpado
TTITLE20=Sou Caipira
TTITLE21=Bateu Saudade
EXTD=YEAR: 2007
EXTT0=
EXTT1=
EXTT2=
EXTT3=
EXTT4=
EXTT5=
EXTT6=
EXTT7=
EXTT8=
EXTT9=
EXTT10=
EXTT11=
EXTT12=
EXTT13=
EXTT14=
EXTT15=
EXTT16=
EXTT17=
EXTT18=
EXTT19=
EXTT20=
EXTT21=
PLAYORDER=
